G04 EAGLE Gerber RS-274X export*
G75*
%MOMM*%
%FSLAX34Y34*%
%LPD*%
%IN*%
%IPPOS*%
%AMOC8*
5,1,8,0,0,1.08239X$1,22.5*%
G01*
%ADD10C,0.254000*%


D10*
X2540Y2540D02*
X866394Y2540D01*
X866394Y1559560D01*
X2540Y1559560D01*
X2540Y2540D01*
X257810Y1125991D02*
X257732Y1124996D01*
X257576Y1124010D01*
X257343Y1123040D01*
X257034Y1122091D01*
X256652Y1121169D01*
X256199Y1120280D01*
X255678Y1119429D01*
X255091Y1118621D01*
X254443Y1117863D01*
X253737Y1117157D01*
X252979Y1116509D01*
X252171Y1115922D01*
X251320Y1115401D01*
X250431Y1114948D01*
X249509Y1114566D01*
X248560Y1114257D01*
X247590Y1114024D01*
X246604Y1113868D01*
X245609Y1113790D01*
X244611Y1113790D01*
X243616Y1113868D01*
X242630Y1114024D01*
X241660Y1114257D01*
X240711Y1114566D01*
X239789Y1114948D01*
X238900Y1115401D01*
X238049Y1115922D01*
X237241Y1116509D01*
X236483Y1117157D01*
X235777Y1117863D01*
X235129Y1118621D01*
X234542Y1119429D01*
X234021Y1120280D01*
X233568Y1121169D01*
X233186Y1122091D01*
X232877Y1123040D01*
X232644Y1124010D01*
X232488Y1124996D01*
X232410Y1125991D01*
X232410Y1126989D01*
X232488Y1127984D01*
X232644Y1128970D01*
X232877Y1129940D01*
X233186Y1130889D01*
X233568Y1131811D01*
X234021Y1132700D01*
X234542Y1133551D01*
X235129Y1134359D01*
X235777Y1135117D01*
X236483Y1135823D01*
X237241Y1136471D01*
X238049Y1137058D01*
X238900Y1137579D01*
X239789Y1138032D01*
X240711Y1138414D01*
X241660Y1138723D01*
X242630Y1138956D01*
X243616Y1139112D01*
X244611Y1139190D01*
X245609Y1139190D01*
X246604Y1139112D01*
X247590Y1138956D01*
X248560Y1138723D01*
X249509Y1138414D01*
X250431Y1138032D01*
X251320Y1137579D01*
X252171Y1137058D01*
X252979Y1136471D01*
X253737Y1135823D01*
X254443Y1135117D01*
X255091Y1134359D01*
X255678Y1133551D01*
X256199Y1132700D01*
X256652Y1131811D01*
X257034Y1130889D01*
X257343Y1129940D01*
X257576Y1128970D01*
X257732Y1127984D01*
X257810Y1126989D01*
X257810Y1125991D01*
X122930Y960748D02*
X122860Y959686D01*
X122722Y958632D01*
X122514Y957588D01*
X122239Y956560D01*
X121897Y955553D01*
X121489Y954570D01*
X121019Y953616D01*
X120487Y952694D01*
X119896Y951810D01*
X119248Y950966D01*
X118547Y950166D01*
X117794Y949413D01*
X116994Y948712D01*
X116150Y948064D01*
X115266Y947473D01*
X114344Y946941D01*
X113390Y946471D01*
X112407Y946063D01*
X111400Y945721D01*
X110372Y945446D01*
X109328Y945238D01*
X108274Y945100D01*
X107212Y945030D01*
X106148Y945030D01*
X105086Y945100D01*
X104032Y945238D01*
X102988Y945446D01*
X101960Y945721D01*
X100953Y946063D01*
X99970Y946471D01*
X99016Y946941D01*
X98094Y947473D01*
X97210Y948064D01*
X96366Y948712D01*
X95566Y949413D01*
X94813Y950166D01*
X94112Y950966D01*
X93464Y951810D01*
X92873Y952694D01*
X92341Y953616D01*
X91871Y954570D01*
X91463Y955553D01*
X91121Y956560D01*
X90846Y957588D01*
X90638Y958632D01*
X90500Y959686D01*
X90430Y960748D01*
X90430Y961812D01*
X90500Y962874D01*
X90638Y963928D01*
X90846Y964972D01*
X91121Y966000D01*
X91463Y967007D01*
X91871Y967990D01*
X92341Y968944D01*
X92873Y969866D01*
X93464Y970750D01*
X94112Y971594D01*
X94813Y972394D01*
X95566Y973147D01*
X96366Y973848D01*
X97210Y974496D01*
X98094Y975087D01*
X99016Y975619D01*
X99970Y976089D01*
X100953Y976497D01*
X101960Y976839D01*
X102988Y977114D01*
X104032Y977322D01*
X105086Y977460D01*
X106148Y977530D01*
X107212Y977530D01*
X108274Y977460D01*
X109328Y977322D01*
X110372Y977114D01*
X111400Y976839D01*
X112407Y976497D01*
X113390Y976089D01*
X114344Y975619D01*
X115266Y975087D01*
X116150Y974496D01*
X116994Y973848D01*
X117794Y973147D01*
X118547Y972394D01*
X119248Y971594D01*
X119896Y970750D01*
X120487Y969866D01*
X121019Y968944D01*
X121489Y967990D01*
X121897Y967007D01*
X122239Y966000D01*
X122514Y964972D01*
X122722Y963928D01*
X122860Y962874D01*
X122930Y961812D01*
X122930Y960748D01*
M02*
