M48
;GenerationSoftware,Autodesk,EAGLE,9.6.2*%
;CreationDate,2022-01-08T22:18:08Z*%
FMAT,2
ICI,OFF
METRIC,TZ,000.000
T9C0.350
T8C0.700
T7C0.767
T6C0.800
T5C1.016
T4C1.105
T3C1.300
T2C2.540
T1C3.250
%
G90
M71
T1
X10668Y96128
T2
X24511Y112649
T3
X5689Y151253
X5689Y146173
X81280Y98446
X81280Y93366
X81280Y88286
X81280Y83206
X81280Y78126
X81280Y73046
X81280Y67966
X81280Y62886
X81280Y151253
X81280Y146173
X81280Y141093
X81280Y136013
X81280Y10080
X81280Y15159
X81280Y20240
X81280Y25319
X81280Y30399
X81280Y35480
X81280Y40560
X81280Y45639
X81280Y130933
X81280Y125853
X81280Y120773
X81280Y115693
T4
X28448Y77724
X33528Y77724
X46228Y77724
X43688Y77724
X41148Y77724
X38608Y77724
X36068Y77724
X30988Y77724
X25908Y77724
X23368Y77724
T5
X43688Y113792
X41148Y113792
X38608Y113792
X36068Y113792
X33528Y113792
X30988Y113792
X46228Y113792
X48768Y113792
X28448Y113792
X51308Y113792
X28448Y90932
X53848Y113792
X56388Y113792
X58928Y113792
X61468Y113792
X64008Y113792
X64008Y90932
X61468Y90932
X58928Y90932
X56388Y90932
X53848Y90932
X51308Y90932
X48768Y90932
X30988Y90932
X33528Y90932
X36068Y90932
X38608Y90932
X41148Y90932
X43688Y90932
X46228Y90932
T6
X9398Y71628
X46900Y141466
X44032Y139458
X6858Y71628
X14478Y71628
X11938Y71628
T7
X31496Y31496
X28956Y31496
X26416Y31496
X23876Y31496
X21336Y31496
X18796Y31496
X18796Y39116
X21336Y39116
X23876Y39116
X26416Y39116
X28956Y39116
X31496Y39116
X34036Y39116
X36576Y39116
X34036Y31496
X36576Y31496
T8
X63266Y129032
X65766Y129032
T9
X30734Y43180
X35306Y35052
X48006Y29972
X29718Y73406
X44958Y52324
X49022Y42926
X42418Y92710
X61468Y92964
X40767Y71755
X39878Y93726
X58928Y93726
X39624Y72898
X44450Y73914
X42164Y70358
X55880Y54610
X56134Y47498
X75438Y28448
X75438Y20828
X70866Y47244
X8636Y125984
X43180Y47498
X34036Y45466
X21336Y45466
X48514Y21336
X50800Y21336
X32766Y80772
X47498Y50800
X64770Y30734
X61468Y27432
X37846Y67818
X45974Y50800
X45974Y43434
X48260Y35306
X45974Y35306
X28194Y67310
X32004Y67310
X24130Y22352
X36068Y26670
X30988Y28448
X32258Y51054
X32258Y43180
X18796Y51054
X18796Y43434
X19812Y33274
X71755Y26035
X63754Y26670
X65024Y41402
X72136Y43688
X32258Y69342
X27940Y69342
X30734Y51054
X34798Y73406
X75438Y120650
X73406Y78740
X73406Y82042
X73406Y98298
X73406Y104394
X31750Y65786
X27178Y66294
X28448Y94488
X40894Y82296
X30226Y85852
X32258Y87884
X46228Y96266
X54102Y70866
X51308Y96520
X32512Y62230
X28448Y62230
X6604Y56896
X58674Y82804
X58674Y78740
X26924Y54102
X33528Y68326
X27940Y74676
X36576Y72621
X42164Y56388
X61976Y117602
X69850Y116586
X28702Y128778
X62230Y16764
X60198Y41148
X58928Y41148
X57658Y41148
X56388Y41148
X55118Y41148
X53848Y41148
X44704Y18288
X43688Y18288
X42672Y18288
X41656Y18288
X27686Y27686
X32766Y55880
X28194Y58166
X69596Y55372
X70866Y53848
X69596Y52324
X68326Y53848
X57658Y61722
X52578Y60198
X69850Y119634
X61976Y135890
X63754Y136398
X65024Y135128
X63246Y149098
X63246Y147574
X63246Y146050
X63246Y144526
X50546Y144780
X50546Y149352
X50546Y146304
X50546Y147828
X59182Y133096
X57912Y131826
X56896Y131826
X49530Y135890
X49530Y138430
X64008Y142748
X63881Y76873
X59690Y71882
X59690Y73914
X57658Y73152
X55626Y73152
X6604Y54864
X12954Y66802
X44704Y83820
X37592Y83820
X19558Y120904
X19558Y124968
X22098Y137668
X22098Y139192
X22098Y140716
X20828Y142240
X19304Y142240
X19558Y127762
X14478Y112776
X12954Y120650
X12954Y117856
X53848Y83820
X66548Y83820
X23622Y117348
X50292Y73152
X47498Y43180
M30